<svg width="68" height="69" viewBox="0 0 68 69" fill="none" xmlns="http://www.w3.org/2000/svg">
<path d="M25.5007 36.8698H42.5007M25.5007 48.2031H34.0007M11.334 11.3698V56.7031C11.334 58.206 11.931 59.6474 12.9937 60.7101C14.0564 61.7728 15.4978 62.3698 17.0007 62.3698H51.0007C52.5035 62.3698 53.9449 61.7728 55.0076 60.7101C56.0703 59.6474 56.6673 58.206 56.6673 56.7031V23.6721C56.6672 22.9172 56.5163 22.1699 56.2234 21.4742C55.9305 20.7784 55.5015 20.1481 54.9617 19.6205L42.3817 7.31812C41.323 6.28299 39.9013 5.70331 38.4207 5.70312H17.0007C15.4978 5.70313 14.0564 6.30015 12.9937 7.36285C11.931 8.42556 11.334 9.8669 11.334 11.3698Z" stroke="black" stroke-width="3" stroke-linecap="round" stroke-linejoin="round"/>
<path d="M39.668 5.70312V17.0365C39.668 18.5394 40.265 19.9807 41.3277 21.0434C42.3904 22.1061 43.8317 22.7031 45.3346 22.7031H56.668" stroke="black" stroke-width="3" stroke-linejoin="round"/>
</svg>
