<svg width="430" height="543" viewBox="0 0 430 543" fill="none" xmlns="http://www.w3.org/2000/svg">
<mask id="mask0_716_7212" style="mask-type:luminance" maskUnits="userSpaceOnUse" x="-19" y="31" width="411" height="508">
<path d="M288.373 31.8345L-18.5342 122.543L84.7701 538.686L391.678 447.977L288.373 31.8345Z" fill="white"/>
</mask>
<g mask="url(#mask0_716_7212)">
<path d="M121.851 81.0241C126.411 90.3981 130.031 100.201 132.658 110.289L133.397 113.602C134.675 119.299 136.26 124.923 138.145 130.448C143.489 142.512 146.549 155.463 147.169 168.643C146.564 175.696 144.601 182.565 141.39 188.874C137.252 196.738 131.978 203.949 125.738 210.276C124.322 211.446 123.133 212.866 122.229 214.465C121.234 216.177 120.623 218.085 120.438 220.057C119.164 223.384 117.247 226.428 114.796 229.014L106.605 239.728C102.602 244.36 98.9674 249.298 95.7355 254.498C93.627 257.703 92.1882 261.301 91.5053 265.076C90.8279 269.691 91.7079 271.017 91.8608 275.498C91.0812 279.441 89.5827 283.206 87.44 286.605C82.7218 295.114 80.8528 295.386 76.4188 303.05C72.7975 307.923 70.3807 313.583 69.3655 319.568C68.925 325.009 70.5842 327.77 68.3648 333.062C67.2244 336.336 66.085 336.584 63.6181 340.737C61.0079 345.547 59.2113 350.756 58.3008 356.152C58.3825 358.55 57.6011 363.167 56.9688 372.162C56.5355 377.812 56.4954 379.691 55.8903 383.364C55.2852 387.036 54.6195 388.937 53.8486 393.868C52.747 398.877 52.4647 404.031 53.0128 409.13C54.3157 413.736 56.1118 418.187 58.3698 422.408C60.876 428.583 60.3406 428.184 62.6277 434.053C64.9148 439.923 67.389 445.16 70.0752 450.494C72.3673 454.364 74.4204 458.371 76.2232 462.492C77.9181 466.295 77.8282 466.716 78.8302 468.56C81.4805 473.23 85.1904 477.214 89.6612 480.19C95.2711 484.542 101.232 488.422 107.482 491.79C111.148 494.104 114.984 496.136 118.958 497.867C122.203 499.283 125.52 500.528 128.894 501.598C139.152 504.251 149.728 505.471 160.32 505.221C174.412 505.367 183.49 505.37 193.254 504.098C196.736 503.945 200.207 503.617 203.655 503.117C224.315 496.986 226.299 466.451 238.975 464.87C248.222 463.72 249.909 479.523 264.521 479.65C272.095 478.465 279.372 475.844 285.961 471.928C294.077 468.208 301.953 463.557 305.026 461.887C308.1 460.217 309.53 459.333 312.083 457.681C320.069 452.933 327.634 447.508 334.694 441.467C340.115 436.885 345.045 431.751 349.405 426.148C356.402 417.84 361.388 408.029 363.974 397.479C365.223 391.28 363.778 391.747 365.395 374.892C366.355 363.278 366.915 364.406 367.043 358.976C366.94 348.368 365.065 337.852 361.495 327.863C359.931 320.168 357.361 312.713 353.852 305.69C347.369 296.103 343.149 297.812 333.443 285.517C330.709 281.854 327.84 277.257 322.413 268.051C315.226 256.193 316.8 256.452 314.648 254.543C307.222 247.909 300.019 250.868 287.214 242.54C284.717 241.108 282.498 239.24 280.661 237.025C276.849 232.355 278.123 229.912 274.825 225.016C272.061 221.287 268.362 218.354 264.101 216.512C259.225 214.279 257.593 215.378 252.293 212.95C248.932 211.147 245.779 208.98 242.891 206.489C237.421 203.062 231.665 200.116 225.686 197.685C222.503 196.124 217.526 193.998 210.969 191.405C194.68 184.969 189.143 184.741 173.379 178.392C161.956 173.877 159.804 171.968 158.611 170.653C153.858 165.911 156.322 161.653 153.602 149.225C152.129 138.488 149.028 128.038 144.406 118.235C140.403 107.938 141.414 103.938 136.608 97.6329C133.17 92.4339 129.119 87.6674 124.542 83.4364" fill="#56A746"/>
<path d="M145.913 144.061L158.031 193.419L155.815 189.634L151.658 187.063L149.678 187.13L148.011 187.187L145.614 187.269L148.532 187.169L150.242 188.363L151.744 189.564L153.343 190.553L155.283 192.365L156.382 193.997L158.739 195.795L165.043 221.561L159.593 217.782L152.148 213.653L146.111 211.042L141.455 209.114L140.412 209.15L142.863 210.631L146.179 213.022L150.871 215.993L155.035 218.772L159.394 221.128L162.592 223.105L166.123 225.698L175.317 262.739L172.665 261.473L164.194 254.771L154.363 248.011L147.882 244.58L142.682 242.045L139.089 240.706L135.808 239.357L137.641 241.069L142.006 243.633L146.282 246.617L151.707 249.667L155.027 252.162C155.027 252.162 159.507 255.035 160.247 255.323L164.926 257.876L168.12 259.75L172.18 262.533L175.676 264.083L176.957 271.03L180.391 283.017L182.816 295.977L174.027 292.207L159.959 286.636L147.764 280.895L139.558 275.854L130.754 271.667L122.716 268.498L115.422 265.721L110.703 265.047L114.846 267.202L125.421 271.328L130.947 274.269L138.162 277.779L141.788 280.056L145.434 282.957L148.1 284.64L158.657 288.245L168.054 291.472L175.032 294.156L181.716 297.371L183.799 300.326L189.982 325.575L191.679 332.508L176.555 326.554L161.355 321.438L145.775 314.353C145.775 314.353 130.181 306.85 130.292 307.055C130.403 307.26 122.236 303.365 122.236 303.365L107.802 296.241L102.395 293.712L107.647 297.811L120.223 305.521L135.781 311.981L148.602 317.7L160.061 323.256C160.061 323.256 171.674 327.243 172.62 327.419L186.752 331.841L192.164 334.474L199.146 364.808L200.193 371.033C200.193 371.033 195.108 368.806 192.661 367.429C190.215 366.052 182.062 362.573 182.062 362.573L171.387 355.529L158.599 350.748L148.699 348.06L138.212 346.54L127.698 344.185L112.767 340.834L101.416 335.378L93.9796 328.432L100.747 337.175L115.101 345.033L130.827 347.209L147.192 349.781L155.13 353.058L166.399 356.117L179.506 364.121L184.622 367.286L192.668 370.663L202.686 373.765L206.201 391.175L193.283 388.694L175.598 387.21L153.86 386.178L138.27 384.936L125.516 384.223L110.419 382.13L106.107 381.129L100.426 379.758L91.1158 376.006L84.289 371.648L71.6179 370.306L79.4191 372.648L85.585 375.986L94.1726 379.971L101.553 382.223L111.558 384.908L122.543 385.785L143.437 386.533L158.725 388.099L177.038 389.665L191.898 390.932L204.49 393.007L208.906 397.03L214.36 419.277L219.94 442.147L210.844 441.622L180.413 439.635L151.609 436.443L117.682 432.905L95.3721 430.432L86.1947 427.51L95.6554 432.613L117.681 435.931L137.457 437.552L158.422 440.385L176.839 441.948L204.641 443.295L219.903 444.131L227.448 469.542L228.832 467.303L224.709 450.436L234.634 435.489L248.241 421.461L266.75 410.395L294.206 392.451L313.892 376.128L321.147 368.576L322.243 367.078L325.832 362.156L328.082 351.645L324.877 358.641L314.914 372.441L306.512 380.031L292.773 390.204L282.571 397.021L272.362 403.63L266.463 408.109L258.566 412.135L251.391 415.927L245.51 420.928L240.15 425.91L234.976 433.287L229.381 440.573L223.898 448.064L211.698 396.309L221.576 380.007L239.53 361.865L255.71 349.835L268.53 340.216L287.079 324.245L294.073 315.137L293.927 310.864L293.817 307.633L292.604 302.666L288.124 318.157L285.333 322.009L280.567 326.032L275.387 330.174L262.923 341.033L252.034 349.126L242.853 355.282L233.327 363.538L223.214 372.96L215.926 382.6L209.32 393.885L203.428 368.001L228.493 335.008L250.815 313.378L263.287 299.701L270.384 290.59L277.035 283.685L268.379 289.928L260.879 299.47L252.208 308.322L247.278 313.707L241.915 318.586L236.576 324.194L230.777 328.565L226.488 334.346L219.962 341.873L213.882 350.219C213.882 350.219 206.878 359.014 206.799 359.747C206.719 360.48 202.354 367.098 202.315 365.952C202.276 364.805 196.421 336.937 196.421 336.937L202.423 326.298L207.036 320.819L217.181 312.334L224.342 305.099L235.637 287.497L245.072 273.506L253.403 263.831L259.309 259.561L250.405 264.664L241.693 275.396L234.833 285.333L224.88 299.446L218.275 307.706L212.911 312.584L208.461 316.701L201.378 323.203L195.013 335.42L185.149 294.019L195.216 283.242L201.473 270.924L211.511 259.313L218.577 249.264L224.423 234.039L216.942 247.233L205.283 260.256L199.526 268.904L195.361 278.333L191.204 284.944L184.56 292.057L175.486 252.403L190.058 236.046L197.228 225.993L203.901 216.688L196.201 223.42L188.658 231.711L180.259 242.432L174.053 250.156L167.544 221.476L175.36 205.871L178.152 195.967L173.905 202.999L167.486 213.652L166.134 216.828L162.579 198.272L166.849 188.84L171.254 180.342L166.127 186.047L161.063 196.654L154.604 172.459L145.913 144.061Z" fill="#60784E"/>
</g>
<g style="mix-blend-mode:overlay">
<path d="M186.358 235.756L177.167 255.378L196.789 264.569L205.98 244.947L186.358 235.756ZM151.418 259.268C162.675 320.37 233.381 305.636 248.286 256.788L223.863 249.336C219.474 267.219 188.011 300.335 151.418 259.268ZM146.117 304.638C126.909 311.592 108.113 334.69 108.113 334.69L131.212 353.486C137.339 340.404 154.809 328.649 166.152 329.974C188.837 332.624 166.978 362.263 144.293 359.613L156.462 393.228C180.059 368.391 206.221 380.645 201.833 398.529C188.666 452.178 119.784 411.937 109.353 383.125C111.006 447.704 169.457 459.132 198.27 448.701C227.083 438.271 239.337 412.108 207.547 369.303L221.953 364.087C223.193 412.522 291.662 436.618 299.613 368.562C302.263 345.877 279.664 283.449 231.643 300.834C193.226 314.741 221.953 364.087 183.123 361.85C204.569 316.066 174.93 294.208 146.117 304.638ZM259.543 317.89C298.787 336.272 252.418 418.236 231.557 360.611C224.603 341.402 235.12 310.438 259.543 317.89Z" fill="#C1D769"/>
</g>
</svg>
