<svg width="498" height="600" viewBox="0 0 498 600" fill="none" xmlns="http://www.w3.org/2000/svg">
<mask id="mask0_716_7218" style="mask-type:luminance" maskUnits="userSpaceOnUse" x="91" y="85" width="411" height="476">
<path d="M501.773 142.602L186.898 85.3826L91.7323 503.461L406.608 560.681L501.773 142.602Z" fill="white"/>
</mask>
<g mask="url(#mask0_716_7218)">
<path d="M330.94 111.532C330.79 121.955 329.608 132.338 327.41 142.528L326.578 145.819C325.154 151.481 324.036 157.216 323.231 162.999C322.57 176.177 319.47 189.118 314.088 201.165C310.371 207.19 305.526 212.439 299.817 216.626C292.581 221.783 284.625 225.847 276.204 228.687C274.413 229.094 272.712 229.826 271.185 230.847C269.525 231.927 268.12 233.355 267.067 235.032C264.431 237.43 261.349 239.284 257.996 240.489L245.858 246.366C240.198 248.699 234.729 251.472 229.502 254.659C226.176 256.571 223.271 259.136 220.961 262.199C218.278 266.014 218.467 267.595 216.585 271.665C214.113 274.834 211.08 277.521 207.636 279.591C199.592 285.063 197.8 284.465 190.39 289.311C184.962 292.03 180.256 295.996 176.654 300.883C173.81 305.542 174.048 308.754 169.683 312.481C167.191 314.89 166.062 314.598 161.989 317.195C157.492 320.315 153.543 324.156 150.299 328.565C149.293 330.742 146.516 334.513 141.9 342.259C138.969 347.108 138.087 348.768 135.893 351.775C133.699 354.782 132.248 356.179 129.34 360.234C126.101 364.21 123.527 368.685 121.72 373.485C120.81 378.184 120.409 382.968 120.524 387.753C119.981 394.395 119.683 393.797 119.082 400.068C118.48 406.338 118.331 412.129 118.327 418.101C118.631 422.589 118.66 427.091 118.413 431.582C118.214 435.741 117.945 436.076 118.009 438.174C118.272 443.538 119.79 448.765 122.442 453.435C125.491 459.847 129.066 465.996 133.13 471.818C135.36 475.535 137.871 479.077 140.64 482.413C142.899 485.137 145.3 487.743 147.831 490.218C155.795 497.206 164.688 503.058 174.258 507.605C186.774 514.081 194.878 518.172 204.17 521.433C207.347 522.864 210.594 524.135 213.898 525.241C235.105 529.071 250.628 502.701 262.657 506.998C271.432 510.135 265.821 525.005 278.811 531.699C286.106 534.051 293.784 534.988 301.431 534.459C310.353 534.792 319.48 534.186 322.976 534.079C326.472 533.972 328.147 533.827 331.17 533.502C340.439 532.859 349.636 531.422 358.66 529.207C365.564 527.557 372.278 525.194 378.694 522.155C388.683 517.888 397.552 511.373 404.612 503.118C408.519 498.146 407.019 497.912 416.052 483.591C422.14 473.653 422.132 474.913 424.692 470.122C429.377 460.604 432.438 450.371 433.75 439.844C435.818 432.27 436.881 424.456 436.911 416.604C435.439 405.125 430.902 404.75 427.772 389.402C426.981 384.901 426.489 379.504 425.79 368.84C424.713 355.016 426.002 355.956 424.94 353.283C421.297 344.016 413.533 343.413 405.85 330.211C404.266 327.808 403.126 325.141 402.483 322.336C401.183 316.45 403.42 314.842 402.681 308.986C401.892 304.412 399.909 300.127 396.935 296.564C393.587 292.374 391.635 292.62 387.996 288.066C385.807 284.942 383.968 281.587 382.511 278.062C379.171 272.54 375.358 267.317 371.115 262.454C368.975 259.627 365.489 255.488 360.802 250.219C349.157 237.138 344.315 234.44 333.099 221.672C324.933 212.498 323.871 209.824 323.399 208.112C321.291 201.738 325.408 199.045 328.576 186.724C332.096 176.474 334.033 165.747 334.321 154.914C335.384 143.916 338.088 140.801 336.636 133.007C335.908 126.817 334.437 120.736 332.256 114.898" fill="#56A746"/>
<path d="M324.037 178.651L312.629 228.178L312.355 223.801L309.801 219.633L308.002 218.802L306.488 218.102L304.311 217.095L306.961 218.321L307.951 220.157L308.751 221.905L309.733 223.508L310.649 226L310.896 227.952L312.191 230.618L306.216 256.463L303.052 250.634L298.264 243.596L294.05 238.546L290.76 234.727L289.814 234.289L291.334 236.716L293.218 240.344L296.071 245.109L298.537 249.466L301.367 253.532L303.332 256.738L305.318 260.643L296.846 297.856L295.048 295.531L290.502 285.732L284.769 275.27L280.527 269.288L277.027 264.682L274.421 261.869L272.099 259.187L272.965 261.541L275.708 265.796L278.181 270.386L281.652 275.552L283.492 279.275C283.492 279.275 286.199 283.858 286.73 284.448L289.757 288.835L291.766 291.946L294.137 296.259L296.561 299.218L294.576 305.997L292.244 318.246L288.573 330.91L282.423 323.586L272.372 312.276L264.068 301.659L259.011 293.462L253.037 285.76L247.287 279.31L242.025 273.546L238.115 270.819L240.844 274.609L248.428 283.055L252.037 288.17L256.898 294.553L259.11 298.218L261.06 302.451L262.682 305.154L270.485 313.127L277.421 320.24L282.444 325.779L286.963 331.659L287.492 335.236L281.642 360.563L280.036 367.518L269.213 355.392L257.945 343.979L247.225 330.636C247.225 330.636 236.68 316.915 236.687 317.148C236.695 317.381 231.157 310.225 231.157 310.225L221.478 297.364L217.788 292.671L220.632 298.697L228.388 311.243L239.371 324.018L248.242 334.898L255.971 345.019C255.971 345.019 264.545 353.808 265.31 354.392L275.937 364.704L279.583 369.492L272.156 399.72L270.288 405.75C270.288 405.75 266.751 401.472 265.187 399.14C263.622 396.809 257.909 390.032 257.909 390.032L251.55 378.935L242.285 368.907L234.656 362.049L225.978 355.969L217.65 349.132L205.828 339.416L198.151 329.433L194.639 319.882L196.744 330.736L206.022 344.216L219.083 353.241L232.536 362.907L238.148 369.407L246.832 377.213L254.93 390.263L258.073 395.392L263.736 402.031L271.284 409.312L266.582 426.439L256.165 418.407L241.043 409.118L222.099 398.407L208.739 390.277L197.672 383.898L185.136 375.23L181.736 372.394L177.281 368.612L170.658 361.069L166.525 354.104L155.816 347.199L161.726 352.804L165.729 358.56L171.602 365.986L177.177 371.321L184.901 378.223L194.314 383.954L212.633 394.031L225.578 402.313L241.224 411.959L253.921 419.782L264.23 427.305L266.36 432.885L261.211 455.205L255.895 478.137L248.009 473.573L221.734 458.094L197.453 442.274L168.754 423.836L149.949 411.581L143.07 404.839L149.219 413.656L167.39 426.537L184.318 436.89L201.761 448.861L217.502 458.55L241.718 472.273L254.968 479.892L250.261 505.978L252.506 504.603L256.42 487.686L272.012 478.81L290.48 472.413L311.988 470.867L344.584 467.21L369.511 461.501L379.39 458.026L381.043 457.182L386.464 454.403L393.206 446.031L387.194 450.834L372.084 458.669L361.164 461.663L344.316 464.559L332.137 466.051L320.046 467.355L312.762 468.697L303.898 468.736L295.784 468.891L288.281 470.707L281.251 472.742L273.31 476.998L265.033 480.984L256.764 485.203L269.178 433.499L285.339 423.392L309.54 415.279L329.403 411.825L345.181 409.009L368.936 403.102L379.281 398.12L381.076 394.239L382.432 391.304L383.586 386.323L372.61 398.137L368.384 400.32L362.316 401.765L355.826 403.131L339.807 407.214L326.441 409.536L315.471 410.898L303.248 413.979L289.975 417.838L279.127 423.162L268.146 430.264L274.542 404.5L311.779 386.329L341.45 377.069L358.745 370.474L369.185 365.535L378.233 362.365L367.693 364.041L356.699 369.183L344.971 373.182L338.144 375.77L331.158 377.711L323.866 380.313L316.72 381.605L310.287 384.835L301.071 388.617L291.884 393.331C291.884 393.331 281.67 398.029 281.269 398.648C280.868 399.267 273.99 403.21 274.471 402.169C274.953 401.128 282.275 373.608 282.275 373.608L292.425 366.812L299.011 363.998L311.89 360.99L321.542 357.755L339.554 347.126L354.279 338.883L366.073 333.996L373.27 332.842L363.022 333.389L350.411 339.048L339.81 344.832L324.568 352.95L314.951 357.351L307.965 359.291L302.138 360.962L292.886 363.579L281.701 371.62L291.538 330.213L305.379 325.123L316.513 316.943L330.705 311.096L341.539 305.306L353.615 294.345L340.994 302.756L324.72 309.134L315.685 314.263L307.72 320.805L301.031 324.836L291.896 328.195L301.651 288.704L322.028 280.661L332.957 274.914L343.106 269.611L333.199 272.154L322.73 276.16L310.403 281.95L301.383 286.052L308.488 257.513L322.493 247.1L329.446 239.515L322.488 243.88L311.959 250.502L309.321 252.729L314.504 234.56L322.564 228.061L330.324 222.458L323.177 225.243L313.879 232.433L319.007 207.92L324.037 178.651Z" fill="#60784E"/>
</g>
<g style="mix-blend-mode:soft-light">
<path d="M354.537 481.116C352.411 480.735 348.632 478.14 348.39 476.85L359.89 412.6C360.301 410.262 359.769 407.856 358.409 405.909C357.05 403.962 354.974 402.634 352.638 402.216L292.358 391.391L301.551 339.945L356.819 349.884C371.49 352.534 380.402 337.75 381.923 329.246C382.334 326.908 381.802 324.502 380.442 322.555C379.083 320.608 377.007 319.28 374.671 318.862C372.327 318.45 369.916 318.983 367.965 320.344C366.013 321.705 364.68 323.784 364.256 326.126C363.875 328.252 361.282 332.031 359.993 332.273L295.863 320.682C293.525 320.27 291.12 320.802 289.174 322.161C287.229 323.521 285.902 325.597 285.484 327.934L274.679 388.234L223.25 379.024L233.171 323.737C235.816 309.061 221.035 300.142 212.534 298.619C210.19 298.2 207.776 298.73 205.822 300.093C203.869 301.455 202.537 303.537 202.119 305.883C201.701 308.228 202.232 310.643 203.594 312.597C204.956 314.552 207.039 315.885 209.383 316.303C211.508 316.684 215.287 319.279 215.529 320.569L203.995 384.709C203.584 387.047 204.117 389.454 205.476 391.4C206.836 393.347 208.911 394.675 211.248 395.093L271.528 405.918L262.335 457.364L207.066 447.425C192.285 444.809 183.373 459.593 181.853 468.097C181.644 469.256 181.666 470.444 181.918 471.594C182.17 472.744 182.646 473.833 183.32 474.798C183.994 475.763 184.852 476.585 185.845 477.217C186.838 477.849 187.946 478.279 189.105 478.482C191.447 478.883 193.853 478.346 195.802 476.987C197.751 475.628 199.087 473.555 199.52 471.218C199.9 469.092 202.493 465.312 203.782 465.071L268.011 476.591C270.349 477.003 272.754 476.471 274.699 475.111C276.645 473.752 277.972 471.676 278.389 469.339L289.206 409.075L340.635 418.285L330.714 473.572C328.069 488.248 342.85 497.167 351.351 498.69C352.512 498.898 353.702 498.874 354.854 498.621C356.005 498.369 357.096 497.891 358.063 497.217C359.03 496.542 359.855 495.684 360.49 494.69C361.125 493.697 361.559 492.588 361.766 491.427C361.973 490.266 361.949 489.075 361.696 487.923C361.443 486.771 360.966 485.68 360.291 484.712C359.617 483.744 358.758 482.919 357.765 482.283C356.772 481.647 355.663 481.213 354.502 481.006L354.537 481.116Z" fill="#DBF03C"/>
</g>
</svg>
