<svg width="64" height="41" viewBox="0 0 64 41" fill="none" xmlns="http://www.w3.org/2000/svg">
<path d="M22.8043 1.03613C19.7695 11.8714 17.136 22.8846 9.11153 33.0959C7.52932 35.1093 5.7129 37.0436 3.40438 38.8572C3.04593 39.1388 2.2648 39.8267 1.58157 40.0207C1.16183 40.1399 1.32471 39.5354 1.32116 39.2865C1.29907 37.7337 1.26457 36.3516 2.05897 34.813C4.39759 30.2834 8.37385 25.8986 12.5185 21.7541C13.6436 20.629 16.0425 17.9223 18.703 17.0999C20.1386 16.6562 20.6321 22.8619 20.6994 23.2905C21.0706 25.6545 21.5293 28.0099 22.4137 30.3395C22.654 30.9725 23.094 33.19 24.5404 33.6382C28.2969 34.8022 37.3497 26.968 38.6238 26.0016C41.5058 23.8157 44.2785 21.5927 47.0217 19.3592C47.8868 18.655 48.7543 17.7534 49.8428 17.1112C50.1524 16.9286 50.3673 18.3386 50.4938 18.5233C51.8065 20.4406 54.8614 20.0828 57.5246 18.9977C59.8048 18.0688 61.923 16.537 62.9497 15.1117C63.0267 15.0048 60.3399 17.3497 60.0418 17.6647C56.1827 21.744 52.2291 26.183 51.4486 30.7688C51.1134 32.7378 51.0759 36.737 55.2244 37.9083C57.5049 38.5522 59.3542 36.5474 60.3022 35.8071" stroke="black" stroke-linecap="round"/>
</svg>
